<svg xmlns="http://www.w3.org/2000/svg" viewBox="0 0 1200 630" width="1200" height="630" role="img"><title>SOTF Mods</title><rect width="1200" height="630" fill="#090F0C"/><g fill="none" stroke="#38413B" stroke-width="1.5" stroke-linecap="round" stroke-linejoin="round"><path d="M-31.5 160.2c16.9 7.4 62 19.7 101.4 44.6c39.3 24.8 100.5 83.7 134.9 104.7c34.3 21 55.5 15.1 71 21.3c15.5 6.1 19 10.5 22.1 15.7c3.1 5.3 1.2 10.5-3.5 15.8c-4.7 5.2 6.2 4-24.5 15.7c-30.7 11.7-125.2 45.4-159.6 54.6c-34.5 9.1-28.9 3.6-47.3.4c-18.4-3.2-47.2-18.3-63-19.5c-15.7-1.3-26.2 10.1-31.5 12.1M-31.5 544.9c10.5 1.3 43.5-3.9 63 7.6c19.5 11.6 38.5 48.8 54.2 61.8c15.7 12.9 28 13.8 40 15.7c12 1.9 16 2.5 31.8-4.1c15.8-6.5 47.3-29.6 63-35.2c15.8-5.5 21.6-2.2 31.5 1.8c9.9 3.9 18.4 10.2 27.9 21.8c9.5 11.5 24.1 39.3 28.9 47.2M552-31.5c-1 15.8-2.3 73.5-5.7 94.5c-3.5 21-2.7 20.3-15 31.5c-12.3 11.2-38.5 18.5-58.8 35.6c-20.3 17-28.9 44.1-63 66.7c-34.1 22.6-107.6 58.8-141.7 68.7c-34.2 9.9-41.2.9-63-9.2c-21.9-10.2-28.8-27.6-68.2-51.5c-39.4-24-140.1-76.8-168.1-92.2M815.9-31.5c-3.1 2.6-2.7-7.9-18.8 15.8c-16.1 23.6-39.5 89.2-77.5 126c-38.1 36.7-120.6 65.6-150.7 94.5c-30.2 28.8-17.1 55.3-30.5 78.7c-13.5 23.4-31.3 42.8-50.1 61.9c-18.9 19.2-42.8 26.6-63 53c-20.3 26.4-40.3 86.3-58.7 105.6c-18.4 19.3-37.7 16.8-51.6 10.2c-13.9-6.6-21-38.9-31.5-49.9c-10.5-11-18.4-15.2-31.5-16.2c-13.1-1.1-32.7 3-47.2 9.7c-14.6 6.7-33.1 20.1-40.4 30.5c-7.2 10.3-23.6 23.6-3.2 31.5c20.4 7.8 97.4 2.2 125.7 15.7c28.2 13.5 25 44.1 43.9 65.1c18.8 21 57.4 50.7 68.9 60.9M1244.3 415.8c-7.9 4.8-34.6 16.6-47.3 28.7c-12.7 12.1-25.1 15.5-29 43.8c-3.9 28.2 1.7 97.1 5.5 126c3.9 28.8 14.8 39.3 17.8 47.2M511.8-31.5c-.6 7.9.3 34.9-3.7 47.3c-3.9 12.3-6 18.8-19.8 27.1c-13.9 8.3-39.4 4.1-63 22.7c-23.7 18.7-47.3 65.6-78.8 89.2c-31.5 23.6-73.5 50-110.2 52.4c-36.8 2.3-76.2-23.2-110.3-38.3c-34.1-15.1-71.4-37.1-94.5-52.1c-23.1-15.1-33.4-25.5-43.9-38c-10.5-12.6-15.9-31.3-19.1-37.6M893-31.5c-12.3 11.9-49.1 42.5-74 71.4c-24.9 28.9-49.6 74.4-75.6 101.9c-26 27.4-60.5 39.3-80.5 63c-20.1 23.6-18.5 48-39.7 78.7c-21.3 30.7-60 77.6-87.7 105.6c-27.7 28.1-60.2 35.8-78.7 62.8c-18.6 27-29.4 77.5-32.3 99.4c-3 21.8-1.5 14.2 14.4 31.5c15.9 17.2 51.6 58.7 80.9 71.7c29.2 13.1 70.8 6.5 94.5 6.7c23.6.2 31.5 2.2 47.2-5.5c15.8-7.7 18.4-38.2 47.3-40.5c28.8-2.3 97.1 23.8 126 26.9c28.8 3.1 28.8-1.1 47.2-8.5c18.4-7.3 34.1-29 63-35.5c28.9-6.6 84 3.1 110.3-3.8c26.2-6.9 33.9-17.3 47.2-37.6c13.3-20.3 23.3-64.9 32.6-84.2c9.3-19.3 5-14.7 23.2-31.5c18.2-16.8 71.6-58 86-69.6M-12.4-31.5c3 13.1 8.8 57.8 18.2 78.8c9.3 21 17.7 30.8 37.7 47.2c20.1 16.4 55.6 40.2 82.5 51.3c26.9 11.1 49.9 17.4 78.8 15.4c28.8-2.1 70.8-17.9 94.5-27.7c23.6-9.8 32.5-14.2 47.2-31.2c14.7-17 31.1-48.5 40.9-70.8c9.7-22.3 14.8-52.5 17.7-63M934.7-31.5c-40.4 42-194 192.6-242.2 252c-48.1 59.4-19.5 60-46.7 104.6c-27.3 44.6-97 128.1-116.6 163.2c-19.6 35-5 31.5-1.1 47.2c3.8 15.8 15.2 35.1 24.3 47.3c9.1 12.1 20 20.9 30.4 25.6c10.3 4.7 23.2 4.2 31.5 2.5c8.2-1.6 5 4.3 18.2-12.4c13.1-16.7 37.3-82.1 60.5-87.7c23.2-5.6 57.8 42.8 78.8 54.1c21 11.3 31.5 11.8 47.2 13.8c15.8 2.1 15.8 4.2 47.3-1.5c31.5-5.7 110.2-22.8 141.7-32.7c31.5-9.9 22.5-4 47.3-26.5c24.7-22.5 69.8-78.2 101.3-108.5c31.5-30.3 73-61.2 87.7-73.5M32.4-31.5c2.7 10.5 8.3 45.8 16 63c7.8 17.2 17.4 28.1 30.4 40.4c12.9 12.3 28.8 25.4 47.2 33.3c18.4 7.9 42 14 63 14.1c21 .1 44.6-6.7 63-13.6c18.4-6.8 33.4-15.3 47.3-27.6c13.8-12.4 27.1-28.3 36-46.6c8.9-18.3 14.6-52.5 17.5-63M1007.9-31.5c-14 15.8-55.1 68-83.9 94.5c-28.9 26.5-59 35.5-89.2 64.3c-30.3 28.9-70 69.8-92.2 109c-22.1 39.1-34.6 99.7-40.8 126c-6.1 26.2-1.3 18.3 4.1 31.5c5.4 13.1 15.1 28.8 28.5 47.2c13.4 18.4 37.7 49.6 51.8 63c14.1 13.4 19.5 14.1 32.8 17.4c13.3 3.2 28.9 3.8 47.3 2.1c18.3-1.8 42-6.1 63-12.7c21-6.5 34.1-8.5 63-26.8c28.8-18.3 80.5-57.3 110.2-82.9c29.7-25.5 44.3-51.6 68-70.3c23.6-18.8 61.5-35.1 73.8-42.1M48.6-31.5c1.7 7.9 3.3 31.5 10.5 47.3c7.3 15.7 19.2 34 33 47.2c13.8 13.2 33.5 25.4 49.7 32.2c16.1 6.8 28.8 9.5 47.2 8.5c18.4-1 46-8 63-14.8c17-6.8 27.1-13.7 39.2-25.9c12.2-12.2 25.8-31.5 33.6-47.2c7.8-15.8 10.9-39.4 13-47.3M1032.7-31.5c-13 15.8-45 64.2-78 94.5c-33 30.3-88.4 58.3-119.9 87.2c-31.6 28.9-53.2 61.2-69.5 86.1c-16.2 24.8-21.1 42-27.9 63c-6.7 21-11.4 47.2-12.7 63c-1.2 15.7-.2 18.3 5.3 31.5c5.5 13.1 18.2 33.2 27.8 47.2c9.6 14 19.5 27.2 29.7 36.8c10.2 9.6 18.4 16.7 31.5 20.9c13.1 4.1 28.9 5.5 47.3 3.9c18.3-1.7 44.6-7.7 63-13.6c18.3-6 22.1-6.4 47.2-22.3c25.1-15.9 73.1-47.7 103.2-72.9c30.2-25.3 50.1-58.3 77.6-78.8c27.4-20.5 72.5-37.1 87-44.5M62.3-31.5c2 7.9 6.4 34.1 12 47.3c5.5 13.1 10 20.6 21.3 31.5c11.2 10.8 30.6 26.3 46.2 33.4c15.5 7.2 31.5 9.5 47.2 9.5c15.8 0 31.5-2.7 47.3-9.2c15.7-6.5 34.9-18.7 47.2-29.6c12.3-10.8 19.4-21.8 26.4-35.6c6.9-13.9 12.8-39.4 15.3-47.3M1052.1-31.5c-11.7 15.8-36.9 63.6-70.5 94.5c-33.6 30.9-98.1 61.8-131.1 90.6c-33 28.9-51.9 61-66.9 82.7c-15 21.6-16.8 28.8-23.2 47.2c-6.4 18.4-12.8 47.3-15.2 63c-2.5 15.8-3.2 18.4.5 31.5c3.7 13.1 9.5 30.6 21.7 47.3c12.2 16.6 35.1 42.6 51.6 52.4c16.5 9.8 31.5 6.9 47.3 6.4c15.7-.4 31.5-4.1 47.2-9.2c15.8-5.1 21.1-5.3 47.3-21.4c26.1-16.2 78.5-49.8 109.6-75.5c31-25.7 47.6-58.3 76.6-78.7c29-20.5 81-36.9 97.3-44.3M74.5-31.5c2.3 7.9 7.5 34.1 13.9 47.3c6.4 13.1 15.8 22.9 24.7 31.5c8.8 8.5 16 14.7 28.7 19.7c12.6 5.1 31.5 10.5 47.2 10.7c15.8.1 33.8-4.6 47.3-9.7c13.4-5 23.7-12 33.6-20.7c10-8.8 18.9-18.4 26.2-31.5c7.3-13.2 14.7-39.4 17.6-47.3M1068.5-31.5c-12.7 18.1-42.5 77.5-76.2 108.7c-33.8 31.2-93.8 52-126 78.5c-32.3 26.5-52.3 59.2-67.4 80.6c-15.1 21.3-17.1 28.8-23.2 47.2c-6.2 18.4-11.7 47.3-13.6 63c-1.9 15.8-2 18.4 2.2 31.5c4.2 13.1 11.2 33 23 47.3c11.7 14.2 31.7 31.6 47.5 38.2c15.7 6.6 31.5 3.7 47.2 1.6c15.8-2.1 17.2 2.9 47.3-14.2c30-17.2 98.7-61.2 132.8-88.6c34.1-27.5 41.5-56 71.9-76.2c30.4-20.2 91.9-37.6 110.3-45.1M98.4-31.5c4.6 9.6 17.7 44.3 27.6 57.3c9.9 13.1 21 16.4 31.5 21c10.5 4.5 15.8 9 31.5 6.6c15.8-2.5 45.8-7.5 63-21.6c17.2-14.1 33.5-52.7 40.2-63.3M1099.6-31.5c-4.2 5.3-13.4 10.5-25.5 31.5c-12 21-17.2 67.9-46.6 94.5c-29.4 26.6-96.1 41.2-129.7 64.8c-33.7 23.6-55 51-72.2 77c-17.2 25.9-25.8 57.7-30.9 78.7c-5.1 21-1.6 34.1.5 47.3c2.1 13.1 3 20.4 12.2 31.5c9.2 11 30.7 28.7 43.1 35c12.4 6.3 18.4 4.4 31.5 2.6c13.1-1.8 22.2.6 47.3-13.5c25-14.2 71.2-43.6 102.7-71.4c31.5-27.8 50.9-73.1 86.3-95.1c35.3-22.1 105-31.2 126-37.4M112.9-31.5c4.8 8.5 16.2 39.5 28.9 51.1c12.6 11.7 29.3 19.2 47.2 18.6c17.9-.6 44.9-10.8 59.9-22.4c14.9-11.7 24.9-39.4 29.9-47.3M1121.2-31.5c-6.5 7.9-27 23.6-39 47.3c-12.1 23.6-5.3 69.7-33.4 94.5c-28.1 24.7-102.4 35.4-135.3 53.8c-32.9 18.4-45.2 33.9-61.9 56.4c-16.8 22.5-31.8 57.8-38.6 78.8c-6.8 21-3.7 34.1-2.3 47.2c1.4 13.1 1.6 20.8 10.9 31.5c9.2 10.7 26.7 29.2 44.7 32.9c17.9 3.7 36.5 2.5 63-10.8c26.4-13.4 66.9-41.1 95.8-69.3c28.8-28.3 59.2-81.1 77.4-100.2c18.2-19.2 7.9-9.2 31.5-14.7c23.6-5.4 91.9-15 110.3-18M130.2-31.5c2.8 5.3 7.4 22.9 17.2 31.5c9.8 8.6 26.8 19.3 41.6 20.1c14.8.8 34.9-7 47.3-15.6c12.3-8.6 22.1-30 26.5-36M1155.4-31.5c-6.2 3.9-26.9 12.9-37.1 23.4c-10.3 10.5-18.8 22.5-24.5 39.6c-5.7 17.1-8.8 42-9.8 63c-.9 21-.1 49.9 4 63c4.1 13.1 7.6 10.5 20.5 15.8c12.9 5.2 34.4 14.8 57 15.9c22.6 1.1 65.6-8 78.8-9.5M976.5 156.3c-24 5.6-55.9 16.4-78.7 35c-22.9 18.6-46.9 55.8-58.6 76.5c-11.8 20.6-10.4 34.1-11.9 47.2c-1.4 13.1-3.3 19.4 3.2 31.5c6.5 12.1 21.9 34.3 35.8 41.1c13.8 6.7 31.5 3.7 47.2-.5c15.8-4.1 30-12.4 47.3-24.4c17.2-12 40.2-29.2 56.2-47.7c16.1-18.5 30.5-39.4 40.2-63c9.8-23.6 20.8-63 18.3-78.7c-2.6-15.8-17-13-33.5-15.8c-16.5-2.8-41.5-6.8-65.5-1.2zM152.8-31.5c6 4.7 24.9 24.8 36.2 28.4c11.3 3.6 22.7-2.3 31.5-7c8.8-4.8 17.6-17.8 21.1-21.4M1244.3-.9c-7.9-3-31.5-16.5-47.3-17.7c-15.7-1.3-33.5 1.7-47.2 10.1c-13.8 8.3-28.2 25.5-35.3 40c-7.2 14.5-8.6 31.5-7.6 47.3c1 15.7 6.4 34.5 13.5 47.2c7.2 12.7 16.6 22 29.4 29.2c12.7 7.1 31.5 13.3 47.2 13.9c15.8.5 39.4-8.8 47.3-10.6M945 183.1c-17.3 7.2-41 20.7-56.7 37.4c-15.6 16.7-30.9 43.7-37.2 63c-6.3 19.3-5.7 39-.6 52.8c5.1 13.8 21 25.3 31.5 30.2c10.5 5 18.4 3.6 31.5-.4c13.1-4 31.7-12.6 47.3-23.7c15.5-11.2 33.8-28.1 45.8-43.1c11.9-15.1 20.7-34.2 25.8-47.3c5.2-13.1 6.8-21 5-31.5c-1.7-10.5-8.1-24.3-15.6-31.5c-7.5-7.2-16.7-10.7-29.5-11.7c-12.9-1-30-1.4-47.3 5.8z"/><path stroke-width="2.75" d="M12.2-31.5c2.3 10.5 6 44.6 13.7 63c7.8 18.4 15.9 31.7 32.5 47.3c16.7 15.5 45.8 36.2 67.6 46.1c21.8 9.9 39.4 14 63 13.2c23.6-.9 57.8-10.7 78.8-18.3c21-7.5 33.4-14.8 47.2-26.9c13.8-12.1 26.1-24.9 35.6-45.6c9.5-20.8 18-65.7 21.6-78.8M973.1-31.5c-11.4 13.1-42.6 54.2-68.2 78.8c-25.7 24.5-54.2 36.8-85.9 68.3c-31.7 31.5-79.7 79.5-104.5 120.7c-24.8 41.1-36.6 99.7-44.3 126c-7.6 26.2-4 21-1.6 31.5c2.4 10.5-3.8 7.8 16 31.5c19.9 23.6 77.9 89.6 102.9 110.3c25 20.7 28.9 12.6 47.3 13.7c18.3 1.2 34.1.1 63-6.9c28.8-7 61.7-2.6 110.2-35.3c48.5-32.6 141.2-127.8 180.5-160.6c39.4-32.8 46.5-30.1 55.8-36.1M86-31.5c2.7 7.9 9.4 34.8 16.1 47.3c6.6 12.4 9.4 18.9 23.9 27.2c14.5 8.4 44.6 20.9 63 23c18.4 2.1 34.1-5.1 47.3-10.4c13.1-5.4 20.3-7.1 31.5-21.7c11.1-14.5 29.6-54.5 35.5-65.4M1083.2-31.5c-11.3 18.4-34.3 78.8-67.8 110.3c-33.5 31.4-99.5 52-133.4 78.2c-33.9 26.3-52.5 50.3-69.8 79.3c-17.3 28.9-28.8 70.8-33.9 94.5c-5.2 23.6.2 34.1 3.2 47.2c3 13.1 8.6 22 14.8 31.5c6.3 9.5 13.7 18.8 22.7 25.2c9 6.5 13.1 13.6 31.5 13.5c18.4 0 47.3.8 78.8-13.9c31.5-14.7 76.8-46.5 110.2-74.3c33.4-27.7 56.3-70.2 90.4-92.2c34.1-22.1 95.3-33.3 114.4-39.9M1244.3 25c-5.3-3.2-18.4-16.3-31.5-18.9c-13.2-2.7-35.2-1.5-47.3 2.8c-12.1 4.2-19.5 13.6-25.4 22.6c-5.8 9-10.2 18.4-9.8 31.5c.4 13.1 6.2 35.6 12.1 47.3c5.9 11.6 11.4 17.2 23.1 22.9c11.7 5.6 34.1 11.1 47.3 11c13.1-.2 26.2-10 31.5-12M945 204.7c-13.1 5.7-36 21-47.2 31.6c-11.2 10.5-15.8 18.3-20.2 31.5c-4.4 13.1-9.7 34.9-6.3 47.2c3.4 12.3 16.8 22.6 26.5 26.3c9.6 3.7 21-.1 31.5-3.9c10.5-3.8 19.5-7.3 31.5-18.9c11.9-11.6 33-34.4 40.1-50.7c7-16.4 6.2-36.4 2.1-47.3c-4.1-10.9-16.8-15.6-26.5-18.2c-9.7-2.6-18.4-3.3-31.5 2.4z"/></g><circle cx="945" cy="267.8" r="46" fill="none" stroke="#FF7335" stroke-width="2" opacity=".22"/><circle cx="945" cy="267.8" r="26" fill="none" stroke="#FF7335" stroke-width="2.5" opacity=".5"/><circle cx="945" cy="267.8" r="10" fill="#FF7335"/><g transform="translate(112 129) scale(2.3884)"><g transform="translate(1.171 -4.55) scale(1.3)"><path fill="#FF7335" fill-rule="evenodd" d="M32 61C26.5 53.5 9 41 9 26.5A23 23 0 1 1 55 26.5C55 41 37.5 53.5 32 61ZM18.86 38.45c-.33-.38-.95-1.16-1.36-1.8c-.41-.64-.79-1.34-1.09-2.04c-.31-.7-.54-1.44-.73-2.16c-.19-.73-.32-1.46-.42-2.19c-.1-.73-.16-1.47-.18-2.21c-.02-.73-.01-1.47.05-2.21c.06-.74.15-1.48.31-2.21c.15-.74.37-1.49.62-2.2c.25-.7.56-1.38.9-2.05c.33-.66.7-1.29 1.11-1.91c.4-.62.83-1.21 1.3-1.79c.48-.57.97-1.12 1.52-1.64c.55-.52 1.13-1.02 1.76-1.46c.64-.43 1.35-.82 2.04-1.14c.7-.31 1.42-.55 2.14-.76c.71-.21 1.44-.36 2.17-.48c.73-.12 1.46-.2 2.2-.24c.73-.05 1.47-.05 2.22-.01c.74.04 1.49.12 2.23.26c.74.15 1.5.36 2.2.6c.71.24 1.39.54 2.06.86c.66.32 1.3.68 1.93 1.07c.62.38 1.23.8 1.82 1.25c.58.46 1.15.94 1.68 1.48c.53.53 1.06 1.11 1.5 1.75c.45.63.85 1.37 1.16 2.08c.31.71.53 1.45.71 2.18c.18.73.3 1.47.38 2.2c.09.74.13 1.47.14 2.21c.01.74-.01 1.47-.09 2.21c-.07.73-.16 1.47-.33 2.21c-.17.74-.4 1.5-.68 2.21c-.29.71-.65 1.39-1.03 2.04c-.38.64-.81 1.25-1.26 1.84c-.45.58-.94 1.14-1.45 1.67c-.51.53-1.05 1.04-1.61 1.51c-.56.48-1.16.93-1.77 1.34c-.62.42-1.27.79-1.92 1.13c-.65.34-1.32.64-2 .91c-.68.27-1.37.52-2.07.72c-.71.21-1.42.39-2.15.52c-.73.13-1.48.24-2.24.27c-.76.02-1.56.02-2.34-.1c-.78-.12-1.56-.34-2.32-.64c-.75-.29-1.74-.83-2.2-1.1c-.46-.28-.42-.35-.54-.56c-.12-.22-.19-.51-.18-.76c0-.25.09-.53.22-.74c.13-.22.34-.42.56-.54c.22-.12.5-.19.75-.19c.25.01.33.04.75.22c.41.18 1.19.66 1.75.89c.57.22 1.07.36 1.64.45c.57.09 1.16.09 1.76.07c.6-.03 1.23-.11 1.84-.22c.62-.11 1.24-.27 1.85-.44c.61-.18 1.21-.4 1.81-.63c.59-.24 1.18-.51 1.74-.8c.56-.29 1.1-.6 1.62-.95c.52-.35 1.02-.73 1.5-1.14c.48-.4.95-.84 1.39-1.3c.43-.45.85-.94 1.24-1.43c.38-.5.74-1.02 1.06-1.55c.31-.52.6-1.07.82-1.63c.23-.55.39-1.12.53-1.71c.13-.59.22-1.22.28-1.85c.06-.62.08-1.26.07-1.89c0-.64-.04-1.28-.12-1.9c-.07-.62-.17-1.25-.32-1.85c-.15-.59-.32-1.18-.55-1.72c-.23-.54-.5-1.02-.84-1.5c-.33-.48-.74-.93-1.17-1.36c-.43-.44-.91-.85-1.41-1.23c-.49-.39-1.02-.75-1.56-1.08c-.54-.33-1.1-.65-1.67-.92c-.56-.27-1.15-.53-1.73-.73c-.58-.2-1.16-.36-1.76-.48c-.6-.12-1.22-.18-1.84-.22c-.62-.03-1.26-.03-1.89.01c-.63.04-1.27.11-1.89.21c-.62.1-1.24.24-1.84.41c-.59.17-1.18.37-1.73.62c-.55.24-1.05.52-1.54.86c-.49.33-.96.73-1.41 1.15c-.44.43-.86.9-1.26 1.38c-.4.49-.78 1-1.12 1.53c-.35.53-.67 1.08-.95 1.64c-.29.56-.55 1.13-.75 1.71c-.21.58-.38 1.16-.5 1.76c-.13.6-.21 1.23-.25 1.85c-.05.63-.07 1.27-.05 1.9c.02.63.07 1.27.15 1.89c.09.62.2 1.25.36 1.84c.16.6.34 1.19.58 1.74c.24.55.51 1.06.84 1.57c.33.51.88 1.11 1.13 1.48c.24.36.29.45.33.7c.05.24.03.54-.05.77c-.09.24-.25.48-.44.64c-.19.17-.46.29-.7.34c-.25.05-.54.03-.78-.06c-.23-.08-.3-.06-.64-.43zM31.16 35.21c-.43-.15-.86-.36-1.25-.6c-.38-.23-.74-.51-1.07-.8c-.34-.29-.65-.61-.94-.93c-.3-.33-.57-.67-.83-1.01c-.26-.34-.5-.69-.73-1.03c-.23-.34-.43-.67-.64-1.01c-.2-.34-.4-.67-.6-1.03c-.2-.37-.42-.75-.61-1.15c-.19-.39-.38-.81-.54-1.23c-.17-.43-.32-.86-.43-1.31c-.11-.45-.21-.91-.24-1.38c-.02-.47-.01-.98.07-1.45c.07-.47.22-.92.39-1.38c.17-.45.39-.9.64-1.35c.24-.44.52-.88.82-1.29c.3-.42.63-.83.97-1.2c.34-.36.71-.72 1.1-1.02c.38-.3.79-.58 1.23-.79c.44-.21.93-.36 1.4-.45c.47-.1.95-.12 1.43-.13c.47 0 .94.04 1.41.09c.46.06.93.14 1.37.23c.44.09.88.21 1.29.31c.41.11.79.23 1.17.35c.39.12.76.25 1.14.39c.39.15.78.31 1.17.49c.38.18.77.37 1.14.59c.38.21.75.45 1.1.71c.35.26.69.54.99.86c.31.31.6.67.85 1.04c.25.37.45.76.63 1.17c.19.41.34.85.48 1.29c.13.45.24.91.32 1.38c.08.46.14.94.17 1.41c.02.46.03.94-.01 1.4c-.03.46-.1.91-.21 1.36c-.1.44-.25.87-.43 1.3c-.18.42-.4.84-.64 1.25c-.23.41-.5.82-.79 1.2c-.28.39-.59.76-.92 1.11c-.32.34-.67.67-1.03.97c-.36.29-.74.56-1.14.79c-.4.23-.82.41-1.26.58c-.44.16-.9.29-1.37.39c-.47.11-.95.18-1.43.23c-.48.05-.97.08-1.44.07c-.47 0-.95-.03-1.4-.11c-.46-.07-.9-.16-1.33-.31zM32.13 32.37c-.24-.08-.42-.17-.64-.31c-.22-.13-.45-.31-.68-.51c-.22-.2-.46-.43-.68-.68c-.23-.25-.45-.53-.67-.81c-.21-.28-.42-.59-.62-.88c-.2-.3-.38-.6-.57-.91c-.19-.31-.38-.62-.56-.94c-.18-.33-.36-.67-.52-1c-.17-.33-.32-.68-.45-1.01c-.13-.32-.24-.65-.32-.96c-.07-.3-.12-.6-.14-.86c-.03-.26-.02-.45.02-.7c.05-.25.12-.52.24-.82c.11-.3.28-.64.46-.97c.18-.33.4-.68.63-1c.23-.32.49-.64.74-.91c.25-.27.53-.52.77-.72c.23-.19.44-.32.66-.43c.22-.11.4-.16.65-.2c.26-.05.56-.08.88-.08c.32 0 .69.03 1.05.07c.36.04.74.11 1.12.19c.37.07.75.17 1.12.27c.36.1.71.2 1.05.31c.34.11.66.22.98.34c.33.12.66.26.97.4c.32.15.63.3.91.47c.28.16.56.34.8.52c.24.18.46.37.65.56c.19.19.33.35.47.57c.15.22.28.46.4.74c.12.28.24.61.34.94c.1.33.18.69.24 1.04c.07.35.11.72.13 1.07c.02.34.02.69 0 1c-.02.32-.06.58-.13.86c-.07.29-.16.55-.29.85c-.12.29-.28.61-.46.92c-.18.3-.39.62-.6.91c-.22.3-.47.59-.71.85c-.24.25-.5.5-.74.7c-.25.2-.47.36-.72.5c-.26.15-.51.26-.81.37c-.3.11-.65.21-.99.28c-.35.08-.73.14-1.09.18c-.37.04-.75.06-1.09.05c-.35 0-.7-.03-1-.07c-.3-.05-.56-.11-.8-.19zM38.2 24c0 .53-.16 1.14-.43 1.6c-.27.46-.71.9-1.17 1.17c-.46.27-1.07.43-1.6.43c-.53 0-1.14-.16-1.6-.43c-.46-.27-.9-.71-1.17-1.17c-.27-.46-.43-1.07-.43-1.6c0-.53.16-1.14.43-1.6c.27-.46.71-.9 1.17-1.17c.46-.27 1.07-.43 1.6-.43c.53 0 1.14.16 1.6.43c.46.27.9.71 1.17 1.17c.27.46.43 1.07.43 1.6z"/></g><path transform="translate(7.198 116.75) scale(.3)" fill="#F5F4EC" d="M26.7-13.6l0 14.7q-11.3-.8-16.4-6.4q-5.1-5.6-5.6-17.4l0 0q-.1-2.3-.1-4.8q0-2.5.2-5q.1-2.6.3-4.8l0 0l16.5 0q-.3 4.7-.3 9.3q-.1 4.5.3 8.4l0 0q.2 2.4 1.4 3.9q1.3 1.5 3.7 2.1l0 0M34.6 1.1l0 0l0-14.7q2.2-.6 3.4-2.1q1.2-1.5 1.4-3.9l0 0q.3-2.2.4-4.5q0-2.2-.1-4.5q-.1-2.2-.3-4.4l0 0q-.2-3-2.1-5.2q-2-2.3-5.2-3l0 0l-10.7-2.5q-6.3-1.4-10-4.5q-3.7-3-5.3-7.7q-1.7-4.7-1.8-10.9l0 0q-.1-2.9-.1-5.4q0-2.5.1-5.2l0 0q.5-11.8 5.7-17.4q5.2-5.6 16.7-6.3l0 0l0 14.7q-2.3.6-3.5 2.1q-1.3 1.4-1.5 3.7l0 0q-.4 3.5-.4 6.9q0 3.5.4 6.9l0 0q.2 2.9 1.7 5.1q1.4 2.1 4.6 2.9l0 0l9.6 2q6.8 1.5 11 4.6q4.2 3.2 6.1 8q2 4.8 2.2 11.2l0 0q.1 1.6.1 3.4q0 1.7-.1 3.5q0 1.7-.1 3.4l0 0q-.5 11.8-5.7 17.5q-5.2 5.6-16.5 6.3M56.2-62.9l-16.7 0q.2-4.5.3-8.9q0-4.4-.2-8.8l0 0q0-2.3-1.3-3.8q-1.3-1.5-3.7-2.1l0 0l0-14.6q11.2.8 16.3 6.4q5.1 5.5 5.5 17.3l0 0q.2 2.9.1 6.9q-.1 4-.3 7.6l0 0M91.4-13.6l0 14.7q-11.9-.7-17.1-6.3q-5.2-5.6-5.5-17.6l0 0q-.1-7.4-.2-14.1q-.1-6.7-.1-13.2q0-6.5.1-13.2q.1-6.7.2-14l0 0q.3-11.9 5.5-17.5q5.2-5.6 17.1-6.3l0 0l0 14.7q-2.5.7-3.7 2.6q-1.2 1.9-1.3 5.5l0 0q-.3 7.2-.4 14.2q-.1 7-.1 14q0 7 .1 14q.1 7 .4 14.4l0 0q.1 3.5 1.3 5.5q1.2 2 3.7 2.6l0 0M99.2 1.1l0 0l0-14.6q2.5-.7 3.7-2.7q1.1-2 1.1-5.5l0 0q.4-7.4.5-14.4q.2-7 .2-13.9q0-7-.2-14.1q-.1-7-.5-14.2l0 0q0-3.6-1.1-5.5q-1.2-2-3.7-2.7l0 0l0-14.6q11.3.8 16.5 6.4q5.2 5.6 5.5 17.4l0 0q.3 7.4.5 14.1q.1 6.6.1 13.2q0 6.5-.1 13.2q-.2 6.7-.5 14l0 0q-.3 11.9-5.5 17.5q-5.2 5.6-16.5 6.4M163.2 0l-17.5 0l0-79.1l17.5 0l0 79.1M180-84.6l-51.2 0l0-15.4l51.2 0l0 15.4M206.6 0l-17.4 0l0-100l17.4 0l0 100M231.7-43.1l-17.2 0l0-15.3l17.2 0l0 15.3M233-84.6l-18.5 0l0-15.4l18.5 0l0 15.4"/><path transform="translate(-1.914 155.75) scale(.3)" fill="#FF7335" d="M61.4-.1l-22.2 0l-7.1-29.3l-5.4-55.3l-20.3 0l0-15.3l31.9 0l7.6 38.4l2.1 46.2l5.3 0l1.9-46.2l7.7-38.4l31.9 0l0 15.3l-20.4 0l-5.3 55.1l-7.7 29.5M24.3 0l-17.9 0l0-79.1l15.2 0l2.7 48.8l0 30.3M94.8 0l-18 0l0-30.3l2.8-48.8l15.2 0l0 79.1M131.3-13.6l0 14.7q-11.8-.7-17-6.3q-5.3-5.6-5.6-17.6l0 0q-.1-7.4-.2-14.1q0-6.7 0-13.2q0-6.5 0-13.2q.1-6.7.2-14l0 0q.3-11.9 5.6-17.5q5.2-5.6 17-6.3l0 0l0 14.7q-2.5.7-3.7 2.6q-1.2 1.9-1.2 5.5l0 0q-.4 7.2-.5 14.2q-.1 7-.1 14q0 7 .1 14q.1 7 .5 14.4l0 0q0 3.5 1.2 5.5q1.2 2 3.7 2.6l0 0M139.1 1.1l0 0l0-14.6q2.6-.7 3.7-2.7q1.1-2 1.2-5.5l0 0q.3-7.4.5-14.4q.2-7 .2-13.9q0-7-.2-14.1q-.2-7-.5-14.2l0 0q-.1-3.6-1.2-5.5q-1.1-2-3.7-2.7l0 0l0-14.6q11.4.8 16.5 6.4q5.2 5.6 5.6 17.4l0 0q.3 7.4.4 14.1q.1 6.6.1 13.2q0 6.5-.1 13.2q-.1 6.7-.4 14l0 0q-.4 11.9-5.6 17.5q-5.1 5.6-16.5 6.4M192.8 0l-17.3 0l0-100l17.3 0l0 100M201.3 0l-.5 0l0-15.4l.5 0q4 0 6.1-1.8q2-1.7 2.1-5.2l0 0q.2-7.1.3-14q.1-6.8.1-13.7q0-6.8-.1-13.7q-.1-6.9-.3-13.9l0 0q-.1-3.4-2.1-5.2q-2.1-1.7-6.2-1.7l0 0l-.4 0l0-15.4l.4 0q13.5 0 19.5 5.7q6 5.6 6.2 18.6l0 0q.2 9.1.3 17.4q0 8.3 0 16.5q-.1 8.2-.3 17.4l0 0q-.2 13-6.2 18.7q-6 5.7-19.4 5.7l0 0M261.2-13.6l0 14.7q-11.2-.8-16.4-6.4q-5.1-5.6-5.6-17.4l0 0q-.1-2.3-.1-4.8q0-2.5.2-5q.1-2.6.3-4.8l0 0l16.5 0q-.3 4.7-.3 9.3q-.1 4.5.3 8.4l0 0q.2 2.4 1.5 3.9q1.2 1.5 3.6 2.1l0 0M269.1 1.1l0 0l0-14.7q2.2-.6 3.4-2.1q1.2-1.5 1.5-3.9l0 0q.2-2.2.3-4.5q0-2.2-.1-4.5q-.1-2.2-.2-4.4l0 0q-.3-3-2.2-5.2q-2-2.3-5.2-3l0 0l-10.7-2.5q-6.3-1.4-10-4.5q-3.7-3-5.3-7.7q-1.6-4.7-1.8-10.9l0 0q-.1-2.9-.1-5.4q0-2.5.1-5.2l0 0q.5-11.8 5.7-17.4q5.2-5.6 16.7-6.3l0 0l0 14.7q-2.2.6-3.5 2.1q-1.2 1.4-1.5 3.7l0 0q-.4 3.5-.4 6.9q0 3.5.4 6.9l0 0q.3 2.9 1.7 5.1q1.4 2.1 4.6 2.9l0 0l9.6 2q6.9 1.5 11 4.6q4.2 3.2 6.1 8q2 4.8 2.3 11.2l0 0q0 1.6 0 3.4q0 1.7 0 3.5q-.1 1.7-.2 3.4l0 0q-.5 11.8-5.7 17.5q-5.1 5.6-16.5 6.3M290.7-62.9l-16.7 0q.2-4.5.3-8.9q0-4.4-.2-8.8l0 0q0-2.3-1.3-3.8q-1.3-1.5-3.7-2.1l0 0l0-14.6q11.2.8 16.3 6.4q5.1 5.5 5.6 17.3l0 0q.1 2.9 0 6.9q-.1 4-.3 7.6l0 0"/></g><circle cx="906.6" cy="561" r="6" fill="#6BCFE0"/><path transform="translate(924.78 570) scale(.18)" fill="#B4B7AE" d="M9.9-26.1l15.7 0q1.9 6.4 6.8 9.7q4.9 3.4 12.2 3.4l0 0q8.2 0 12.8-4q4.7-4 4.7-11l0 0q0-5.2-3.3-8.6q-3.4-3.3-9.7-4.3l0 0l-11.3-1.6q-13.2-2.2-20-9.6q-6.8-7.3-6.8-19.5l0 0q0-9.3 4.3-16.1q4.2-6.9 11.9-10.7q7.7-3.7 18.1-3.7l0 0q10.3 0 18 3.7q7.6 3.7 12 10.5q4.5 6.8 5 16.5l0 0l-15.4 0q-1.9-7.6-6.9-11.6q-5-4-12.7-4l0 0q-8.5 0-13.4 4.1q-4.9 4-4.9 11.2l0 0q0 5.1 3.4 8.5q3.4 3.3 9.6 4.3l0 0l11.5 1.7q13.1 2.1 19.9 9.5q6.7 7.3 6.7 19.5l0 0q0 9.2-4.1 16q-4.1 6.8-11.7 10.6q-7.5 3.7-17.7 3.7l0 0q-10.2 0-17.8-3.3q-7.7-3.4-12-9.7q-4.4-6.3-4.9-15.2l0 0M131.3 2.1l0 0q-18.5 0-28-13q-9.4-13.1-9.4-39.1l0 0q0-26 9.4-39.1q9.5-13 28-13l0 0q18.6 0 28 13q9.3 13.1 9.3 39.1l0 0q0 26-9.3 39.1q-9.4 13-28 13M131.3-13.1l0 0q10.7 0 15.8-9q5.2-9 5.2-27.9l0 0q0-18.9-5.2-27.9q-5.1-9-15.8-9l0 0q-10.8 0-15.9 9q-5.1 9-5.1 27.9l0 0q0 18.9 5.1 27.9q5.1 9 15.9 9M226.9 0l-16.3 0l0-84.5l-29.2 0l0-15.5l74.7 0l0 15.5l-29.2 0l0 84.5M297.4 0l-16.4 0l0-100l61 0l0 15.5l-44.6 0l0 28.9l38.4 0l0 14.4l-38.4 0l0 41.2M430.1-36.6l-72.7 0l0-14.3l72.7 0l0 14.3M460.6 0l-14.6 0l0-100l24.4 0l10.5 55.8l1.6 0l10.4-55.8l23.6 0l0 100l-14.6 0l0-52.9l.9-34.5l-1.8 0l-10 54.3l-19.4 0l-10.1-54.3l-1.7 0l.8 34.5l0 52.9M568.8 2.1l0 0q-18.5 0-28-13q-9.4-13.1-9.4-39.1l0 0q0-26 9.4-39.1q9.5-13 28-13l0 0q18.6 0 28 13q9.3 13.1 9.3 39.1l0 0q0 26-9.3 39.1q-9.4 13-28 13M568.8-13.1l0 0q10.7 0 15.8-9q5.2-9 5.2-27.9l0 0q0-18.9-5.2-27.9q-5.1-9-15.8-9l0 0q-10.8 0-15.9 9q-5.1 9-5.1 27.9l0 0q0 18.9 5.1 27.9q5.1 9 15.9 9M652.3 0l-29 0l0-100l29 0q20.5 0 30.9 12.6q10.4 12.7 10.4 37.4l0 0q0 24.8-10.4 37.4q-10.4 12.6-30.9 12.6l0 0M639.6-84.6l0 69.2l12.7 0q12.6 0 18.8-8.5q6.2-8.6 6.2-26.1l0 0q0-17.6-6.2-26.1q-6.2-8.5-18.8-8.5l0 0l-12.7 0M709.9-26.1l15.7 0q1.9 6.4 6.8 9.7q4.9 3.4 12.2 3.4l0 0q8.2 0 12.8-4q4.7-4 4.7-11l0 0q0-5.2-3.3-8.6q-3.4-3.3-9.7-4.3l0 0l-11.3-1.6q-13.2-2.2-20-9.6q-6.8-7.3-6.8-19.5l0 0q0-9.3 4.3-16.1q4.2-6.9 11.9-10.7q7.7-3.7 18.1-3.7l0 0q10.3 0 18 3.7q7.6 3.7 12 10.5q4.5 6.8 5 16.5l0 0l-15.4 0q-1.9-7.6-6.9-11.6q-5-4-12.7-4l0 0q-8.5 0-13.4 4.1q-4.9 4-4.9 11.2l0 0q0 5.1 3.4 8.5q3.4 3.3 9.6 4.3l0 0l11.5 1.7q13.1 2.1 19.9 9.5q6.7 7.3 6.7 19.5l0 0q0 9.2-4.1 16q-4.1 6.8-11.7 10.6q-7.5 3.7-17.7 3.7l0 0q-10.2 0-17.8-3.3q-7.7-3.4-12-9.7q-4.4-6.3-4.9-15.2l0 0M831.3 1.1l0 0q-6.2 0-9.5-3.4q-3.4-3.4-3.4-9.7l0 0q0-6.4 3.4-9.7q3.3-3.4 9.5-3.4l0 0q6.1 0 9.5 3.4q3.3 3.3 3.3 9.7l0 0q0 6.3-3.3 9.7q-3.4 3.4-9.5 3.4M920.8 2.1l0 0q-18.2 0-27.4-13q-9.1-13.1-9.1-39.1l0 0q0-26 9.4-39.1q9.4-13 28.2-13l0 0q10.2 0 17.7 4.3q7.5 4.3 11.8 12.6q4.2 8.3 5 20.2l0 0l-15 0q-1.9-10.7-6.7-16.3q-4.8-5.6-12.8-5.6l0 0q-10.9 0-16.1 9q-5.2 9-5.2 27.9l0 0q0 18.9 4.9 27.9q4.9 9 15.3 9l0 0q7.5 0 12.1-5.2q4.6-5.2 6.4-15.1l0 0l15 0q-.8 11.3-5 19.2q-4.2 8-11.4 12.1q-7.3 4.2-17.1 4.2M1006.3 2.1l0 0q-18.5 0-28-13q-9.4-13.1-9.4-39.1l0 0q0-26 9.4-39.1q9.5-13 28-13l0 0q18.6 0 28 13q9.3 13.1 9.3 39.1l0 0q0 26-9.3 39.1q-9.4 13-28 13M1006.3-13.1l0 0q10.7 0 15.8-9q5.2-9 5.2-27.9l0 0q0-18.9-5.2-27.9q-5.1-9-15.8-9l0 0q-10.8 0-15.9 9q-5.1 9-5.1 27.9l0 0q0 18.9 5.1 27.9q5.1 9 15.9 9M1073.1 0l-14.6 0l0-100l24.4 0l10.5 55.8l1.6 0l10.4-55.8l23.6 0l0 100l-14.6 0l0-52.9l.9-34.5l-1.8 0l-10 54.3l-19.4 0l-10.1-54.3l-1.7 0l.8 34.5l0 52.9"/></svg>
